<svg width="24" height="24" viewBox="0 0 24 24" fill="none" xmlns="http://www.w3.org/2000/svg">
<path d="M9.5697 18.8204C9.3797 18.8204 9.1897 18.7504 9.0397 18.6004L2.9697 12.5304C2.6797 12.2404 2.6797 11.7604 2.9697 11.4704L9.0397 5.40036C9.3297 5.11036 9.8097 5.11036 10.0997 5.40036C10.3897 5.69036 10.3897 6.17036 10.0997 6.46036L4.5597 12.0004L10.0997 17.5404C10.3897 17.8304 10.3897 18.3104 10.0997 18.6004C9.9597 18.7504 9.7597 18.8204 9.5697 18.8204Z" fill="#0C3EAD"/>
<path d="M20.4998 12.7502H3.6698C3.2598 12.7502 2.9198 12.4102 2.9198 12.0002C2.9198 11.5902 3.2598 11.2502 3.6698 11.2502H20.4998C20.9098 11.2502 21.2498 11.5902 21.2498 12.0002C21.2498 12.4102 20.9098 12.7502 20.4998 12.7502Z" fill="#0C3EAD"/>
</svg>
