<svg width="20" height="20" viewBox="0 0 20 20" fill="none" xmlns="http://www.w3.org/2000/svg">
<path d="M10.0001 18.9583C5.05841 18.9583 1.04175 14.9416 1.04175 9.99996C1.04175 5.05829 5.05841 1.04163 10.0001 1.04163C14.9417 1.04163 18.9584 5.05829 18.9584 9.99996C18.9584 14.9416 14.9417 18.9583 10.0001 18.9583ZM10.0001 2.29163C5.75008 2.29163 2.29175 5.74996 2.29175 9.99996C2.29175 14.25 5.75008 17.7083 10.0001 17.7083C14.2501 17.7083 17.7084 14.25 17.7084 9.99996C17.7084 5.74996 14.2501 2.29163 10.0001 2.29163Z" fill="#212121"/>
<path d="M10 11.4583C9.65833 11.4583 9.375 11.175 9.375 10.8333V6.66663C9.375 6.32496 9.65833 6.04163 10 6.04163C10.3417 6.04163 10.625 6.32496 10.625 6.66663V10.8333C10.625 11.175 10.3417 11.4583 10 11.4583Z" fill="#212121"/>
<path d="M10.0001 14.1667C9.89175 14.1667 9.78341 14.1417 9.68341 14.1C9.58341 14.0583 9.49175 14 9.40841 13.925C9.33341 13.8417 9.27508 13.7583 9.23341 13.65C9.19175 13.55 9.16675 13.4417 9.16675 13.3333C9.16675 13.225 9.19175 13.1167 9.23341 13.0167C9.27508 12.9167 9.33341 12.825 9.40841 12.7417C9.49175 12.6667 9.58341 12.6083 9.68341 12.5667C9.88341 12.4833 10.1167 12.4833 10.3167 12.5667C10.4167 12.6083 10.5084 12.6667 10.5917 12.7417C10.6667 12.825 10.7251 12.9167 10.7667 13.0167C10.8084 13.1167 10.8334 13.225 10.8334 13.3333C10.8334 13.4417 10.8084 13.55 10.7667 13.65C10.7251 13.7583 10.6667 13.8417 10.5917 13.925C10.5084 14 10.4167 14.0583 10.3167 14.1C10.2167 14.1417 10.1084 14.1667 10.0001 14.1667Z" fill="#212121"/>
</svg>
