<svg width="15" height="15" viewBox="0 0 15 15" fill="none" xmlns="http://www.w3.org/2000/svg">
<path d="M11.0376 14.1688C10.7063 14.1688 10.2813 14.0626 9.75007 13.7501L7.88132 12.6438C7.68757 12.5313 7.31257 12.5313 7.12507 12.6438L5.25007 13.7501C4.14382 14.4063 3.49382 14.1438 3.20007 13.9313C2.91257 13.7188 2.46257 13.1751 2.75632 11.9251L3.20007 10.0063C3.25007 9.80632 3.15007 9.46257 3.00007 9.31257L1.45007 7.76257C0.675074 6.98757 0.737574 6.32507 0.843824 6.00007C0.950074 5.67507 1.28757 5.10007 2.36257 4.91882L4.35632 4.58757C4.54382 4.55632 4.81257 4.35632 4.89382 4.18757L6.00007 1.98132C6.50007 0.975073 7.15632 0.825073 7.50007 0.825073C7.84382 0.825073 8.50007 0.975073 9.00007 1.98132L10.1001 4.18132C10.1876 4.35007 10.4563 4.55007 10.6438 4.58132L12.6376 4.91257C13.7188 5.09382 14.0563 5.66882 14.1563 5.99382C14.2563 6.31882 14.3188 6.98132 13.5501 7.75632L12.0001 9.31257C11.8501 9.46257 11.7563 9.80007 11.8001 10.0063L12.2438 11.9251C12.5313 13.1751 12.0876 13.7188 11.8001 13.9313C11.6438 14.0438 11.3938 14.1688 11.0376 14.1688ZM7.50007 11.6188C7.80632 11.6188 8.11257 11.6938 8.35632 11.8376L10.2251 12.9438C10.7688 13.2688 11.1126 13.2688 11.2438 13.1751C11.3751 13.0813 11.4688 12.7501 11.3313 12.1376L10.8876 10.2188C10.7688 9.70007 10.9626 9.03132 11.3376 8.65007L12.8876 7.10007C13.1938 6.79382 13.3313 6.49382 13.2688 6.28757C13.2001 6.08132 12.9126 5.91257 12.4876 5.84382L10.4938 5.51257C10.0126 5.43132 9.48757 5.04382 9.26882 4.60632L8.16882 2.40632C7.96882 2.00632 7.71882 1.76882 7.50007 1.76882C7.28132 1.76882 7.03132 2.00632 6.83757 2.40632L5.73132 4.60632C5.51257 5.04382 4.98757 5.43132 4.50632 5.51257L2.51882 5.84382C2.09382 5.91257 1.80632 6.08132 1.73757 6.28757C1.66882 6.49382 1.81257 6.80007 2.11882 7.10007L3.66882 8.65007C4.04382 9.02507 4.23757 9.70007 4.11882 10.2188L3.67507 12.1376C3.53132 12.7563 3.63132 13.0813 3.76257 13.1751C3.89382 13.2688 4.23132 13.2626 4.78132 12.9438L6.65007 11.8376C6.88757 11.6938 7.19382 11.6188 7.50007 11.6188Z" fill="#DA940C"/>
</svg>
