<svg width="32" height="24" viewBox="0 0 32 24" fill="none" xmlns="http://www.w3.org/2000/svg">
<path fill-rule="evenodd" clip-rule="evenodd" d="M14.375 11C13.7959 8.1472 11.2737 6 8.25 6C5.2263 6 2.70411 8.1472 2.12502 11H0.75C0.335786 11 0 11.3358 0 11.75C0 12.1642 0.335786 12.5 0.75 12.5H2.00491C2.13613 15.8359 4.88195 18.5 8.25 18.5C11.6181 18.5 14.3639 15.8359 14.4951 12.5H17.0049C17.1361 15.8359 19.8819 18.5 23.25 18.5C26.618 18.5 29.3639 15.8359 29.4951 12.5H30.75C31.1642 12.5 31.5 12.1642 31.5 11.75C31.5 11.3358 31.1642 11 30.75 11H29.375C28.7959 8.1472 26.2737 6 23.25 6C20.2263 6 17.7041 8.1472 17.125 11H14.375ZM3.5 12.25C3.5 9.62665 5.62665 7.5 8.25 7.5C10.8734 7.5 13 9.62665 13 12.25C13 14.8734 10.8734 17 8.25 17C5.62665 17 3.5 14.8734 3.5 12.25ZM18.5 12.25C18.5 9.62665 20.6266 7.5 23.25 7.5C25.8734 7.5 28 9.62665 28 12.25C28 14.8734 25.8734 17 23.25 17C20.6266 17 18.5 14.8734 18.5 12.25Z" fill="black"/>
</svg>
