<svg width="20" height="20" viewBox="0 0 20 20" fill="none" xmlns="http://www.w3.org/2000/svg">
<path d="M7.90008 17.2416C7.48342 17.2416 7.19175 17.1 7.01675 16.9666C6.68342 16.725 6.16675 16.1 6.49175 14.7L6.96673 12.65C7.00839 12.475 6.91673 12.1583 6.79173 12.025L5.13341 10.3666C4.25841 9.49164 4.3334 8.7333 4.45007 8.3583C4.56674 7.9833 4.95007 7.32496 6.16673 7.11663L8.29175 6.76663C8.45008 6.74163 8.70841 6.54997 8.77507 6.4083L9.95008 4.0583C10.5167 2.92497 11.2667 2.7583 11.6667 2.7583C12.0667 2.7583 12.8167 2.92497 13.3834 4.0583L14.5584 6.4083C14.6334 6.54997 14.8834 6.74163 15.0417 6.76663L17.1667 7.11663C18.3834 7.31663 18.7667 7.9833 18.8834 8.3583C19.0001 8.7333 19.0751 9.49164 18.2001 10.3666L16.5417 12.025C16.4167 12.15 16.3251 12.475 16.3668 12.65L16.8417 14.7C17.1667 16.1083 16.6501 16.725 16.3167 16.9666C15.9834 17.2083 15.2417 17.5166 13.9917 16.775L12.0001 15.5916C11.8334 15.4916 11.4834 15.4916 11.3167 15.5916L9.32508 16.775C8.75008 17.125 8.26675 17.2416 7.90008 17.2416ZM11.6667 4.0083C11.5334 4.0083 11.2917 4.16663 11.0667 4.61663L9.89174 6.96664C9.64174 7.47497 9.05008 7.90831 8.49174 7.99997L6.36675 8.34997C5.89175 8.43331 5.67508 8.60831 5.63341 8.74164C5.59175 8.87497 5.66673 9.14164 6.0084 9.48331L7.66675 11.1416C8.09175 11.5666 8.31675 12.3416 8.18341 12.925L7.70841 14.975C7.56674 15.5666 7.6584 15.8833 7.75006 15.9583C7.84173 16.025 8.17507 16.0166 8.69173 15.7L10.6917 14.5166C11.2501 14.1833 12.0918 14.1833 12.6418 14.5166L14.6334 15.7C15.1584 16.0083 15.4917 16.025 15.5834 15.9583C15.6751 15.8916 15.7667 15.575 15.6251 14.975L15.1501 12.925C15.0167 12.3333 15.2334 11.5666 15.6667 11.1416L17.3251 9.48331C17.6667 9.14164 17.7417 8.86664 17.7001 8.74164C17.6584 8.61664 17.4417 8.43331 16.9667 8.34997L14.8417 7.99997C14.2834 7.90831 13.6917 7.47497 13.4417 6.96664L12.2667 4.61663C12.0417 4.16663 11.8001 4.0083 11.6667 4.0083Z" fill="#212121"/>
<path d="M6.66675 4.79175H1.66675C1.32508 4.79175 1.04175 4.50841 1.04175 4.16675C1.04175 3.82508 1.32508 3.54175 1.66675 3.54175H6.66675C7.00841 3.54175 7.29175 3.82508 7.29175 4.16675C7.29175 4.50841 7.00841 4.79175 6.66675 4.79175Z" fill="#212121"/>
<path d="M4.16675 16.4583H1.66675C1.32508 16.4583 1.04175 16.1749 1.04175 15.8333C1.04175 15.4916 1.32508 15.2083 1.66675 15.2083H4.16675C4.50841 15.2083 4.79175 15.4916 4.79175 15.8333C4.79175 16.1749 4.50841 16.4583 4.16675 16.4583Z" fill="#212121"/>
<path d="M2.50008 10.625H1.66675C1.32508 10.625 1.04175 10.3417 1.04175 10C1.04175 9.65833 1.32508 9.375 1.66675 9.375H2.50008C2.84175 9.375 3.12508 9.65833 3.12508 10C3.12508 10.3417 2.84175 10.625 2.50008 10.625Z" fill="#212121"/>
</svg>
